<svg width="32" height="32" viewBox="0 0 32 32" fill="none" xmlns="http://www.w3.org/2000/svg">
<path fill-rule="evenodd" clip-rule="evenodd" d="M16.0401 25.08C21.0327 25.08 25.0801 21.0327 25.0801 16.04C25.0801 11.0473 21.0327 7 16.0401 7C11.0474 7 7.00008 11.0473 7.00008 16.04C7.00008 21.0327 11.0474 25.08 16.0401 25.08ZM27.0801 16.04C27.0801 9.94278 22.1373 5 16.0401 5C9.94285 5 5.00008 9.94278 5.00008 16.04C5.00008 18.7285 5.96111 21.1926 7.5584 23.1074L4.29297 26.3729C3.90244 26.7634 3.90245 27.3966 4.29297 27.7871C4.6835 28.1776 5.31667 28.1776 5.70719 27.7871L8.97261 24.5217C10.8874 26.119 13.3515 27.08 16.0401 27.08C22.1373 27.08 27.0801 22.1372 27.0801 16.04Z" fill="url(#paint0_linear_3837_350169)"/>
<defs>
<linearGradient id="paint0_linear_3837_350169" x1="15.5401" y1="5" x2="15.5401" y2="28.08" gradientUnits="userSpaceOnUse">
<stop stop-color="#EFB400"/>
<stop offset="1" stop-color="#E79000"/>
</linearGradient>
</defs>
</svg>
